<mxfile host="app.diagrams.net" agent="Mozilla/5.0 (Windows NT 10.0; Win64; x64) AppleWebKit/537.36 (KHTML, like Gecko) Chrome/130.0.0.0 Safari/537.36" version="24.8.3">
  <diagram name="Page-1" id="r7KOE80o9giuwFPzjj8b">
    <mxGraphModel dx="1562" dy="653" grid="0" gridSize="10" guides="1" tooltips="1" connect="1" arrows="1" fold="1" page="0" pageScale="1" pageWidth="850" pageHeight="1100" math="0" shadow="0">
      <root>
        <mxCell id="0" />
        <mxCell id="1" parent="0" />
        <mxCell id="bsFtnHm_RDGaNGNBkizd-44" value="Property" style="swimlane;fontStyle=1;align=center;verticalAlign=middle;childLayout=stackLayout;horizontal=1;startSize=26;horizontalStack=0;resizeParent=1;resizeParentMax=0;resizeLast=0;collapsible=1;marginBottom=0;whiteSpace=wrap;html=1;shadow=0;fontSize=14;fontFamily=Times New Roman;autosize=1;fixedWidth=1;resizeHeight=1;resizeWidth=1;labelBackgroundColor=none;" vertex="1" parent="1">
          <mxGeometry x="-573" y="76" width="277" height="186" as="geometry">
            <mxRectangle x="-551" y="-30" width="80" height="26" as="alternateBounds" />
          </mxGeometry>
        </mxCell>
        <mxCell id="bsFtnHm_RDGaNGNBkizd-45" value="+ ProprtyId: String&lt;div&gt;+ OnwerId : String&lt;/div&gt;&lt;div&gt;+ Description: String&lt;/div&gt;&lt;div&gt;+ RentalRate: Double&lt;/div&gt;&lt;div&gt;+ AvailabilityStatus: Boolean&lt;/div&gt;" style="text;strokeColor=none;fillColor=none;align=left;verticalAlign=top;spacingLeft=4;spacingRight=4;overflow=hidden;rotatable=0;points=[[0,0.5],[1,0.5]];portConstraint=eastwest;whiteSpace=wrap;html=1;labelBackgroundColor=none;" vertex="1" parent="bsFtnHm_RDGaNGNBkizd-44">
          <mxGeometry y="26" width="277" height="84" as="geometry" />
        </mxCell>
        <mxCell id="bsFtnHm_RDGaNGNBkizd-46" value="" style="line;strokeWidth=1;fillColor=none;align=left;verticalAlign=middle;spacingTop=-1;spacingLeft=3;spacingRight=3;rotatable=0;labelPosition=right;points=[];portConstraint=eastwest;labelBackgroundColor=none;" vertex="1" parent="bsFtnHm_RDGaNGNBkizd-44">
          <mxGeometry y="110" width="277" height="8" as="geometry" />
        </mxCell>
        <mxCell id="bsFtnHm_RDGaNGNBkizd-47" value="+ createListing()&lt;div&gt;+ updateListing()&lt;/div&gt;&lt;div&gt;+ deleteListing()&lt;/div&gt;" style="text;strokeColor=none;fillColor=none;align=left;verticalAlign=top;spacingLeft=4;spacingRight=4;overflow=hidden;rotatable=0;points=[[0,0.5],[1,0.5]];portConstraint=eastwest;whiteSpace=wrap;html=1;labelBackgroundColor=none;" vertex="1" parent="bsFtnHm_RDGaNGNBkizd-44">
          <mxGeometry y="118" width="277" height="68" as="geometry" />
        </mxCell>
        <mxCell id="bsFtnHm_RDGaNGNBkizd-48" value="User (Abstract class)" style="swimlane;fontStyle=1;align=center;verticalAlign=middle;childLayout=stackLayout;horizontal=1;startSize=37;horizontalStack=0;resizeParent=1;resizeParentMax=0;resizeLast=0;collapsible=1;marginBottom=0;whiteSpace=wrap;html=1;shadow=0;fontSize=14;fontFamily=Times New Roman;autosize=1;fixedWidth=1;resizeHeight=1;resizeWidth=1;labelBackgroundColor=none;" vertex="1" parent="1">
          <mxGeometry x="-244" y="78" width="277" height="197" as="geometry">
            <mxRectangle x="-551" y="-30" width="80" height="26" as="alternateBounds" />
          </mxGeometry>
        </mxCell>
        <mxCell id="bsFtnHm_RDGaNGNBkizd-49" value="+ userId: String&lt;div&gt;+ username: String&lt;/div&gt;&lt;div&gt;+ email: String&lt;/div&gt;&lt;div&gt;+ role: String (Owner, Manager, Tenant)&lt;/div&gt;" style="text;strokeColor=none;fillColor=none;align=left;verticalAlign=top;spacingLeft=4;spacingRight=4;overflow=hidden;rotatable=0;points=[[0,0.5],[1,0.5]];portConstraint=eastwest;whiteSpace=wrap;html=1;labelBackgroundColor=none;" vertex="1" parent="bsFtnHm_RDGaNGNBkizd-48">
          <mxGeometry y="37" width="277" height="84" as="geometry" />
        </mxCell>
        <mxCell id="bsFtnHm_RDGaNGNBkizd-50" value="" style="line;strokeWidth=1;fillColor=none;align=left;verticalAlign=middle;spacingTop=-1;spacingLeft=3;spacingRight=3;rotatable=0;labelPosition=right;points=[];portConstraint=eastwest;labelBackgroundColor=none;" vertex="1" parent="bsFtnHm_RDGaNGNBkizd-48">
          <mxGeometry y="121" width="277" height="8" as="geometry" />
        </mxCell>
        <mxCell id="bsFtnHm_RDGaNGNBkizd-51" value="+ createListing()&lt;div&gt;+ updateListing()&lt;/div&gt;&lt;div&gt;+ deleteListing()&lt;/div&gt;" style="text;strokeColor=none;fillColor=none;align=left;verticalAlign=top;spacingLeft=4;spacingRight=4;overflow=hidden;rotatable=0;points=[[0,0.5],[1,0.5]];portConstraint=eastwest;whiteSpace=wrap;html=1;labelBackgroundColor=none;" vertex="1" parent="bsFtnHm_RDGaNGNBkizd-48">
          <mxGeometry y="129" width="277" height="68" as="geometry" />
        </mxCell>
      </root>
    </mxGraphModel>
  </diagram>
</mxfile>
